# Blender v2.81 (sub 16) OBJ File: ''
# www.blender.org
mtllib TropicalFish016.mtl
o Icosphere.001
v -0.031775 -0.171607 0.106457
v 0.025113 -0.156605 0.189717
v -0.053120 -0.145406 0.258187
v 0.133427 -0.120822 0.253757
v 0.118598 -0.136688 0.091931
v -0.083548 -0.161876 0.091576
v -0.040504 -0.161514 -0.095588
v 0.000899 -0.165050 -0.017564
v 0.251212 -0.024298 0.173619
v -0.098646 -0.120792 0.384207
v 0.035688 -0.126086 0.355204
v -0.031775 -0.068092 0.517927
v -0.203031 -0.130045 0.088527
v -0.172921 -0.133079 0.250118
v -0.314763 -0.024298 0.173619
v -0.074598 -0.138632 -0.296214
v -0.122497 -0.152947 -0.119510
v -0.214497 -0.057497 -0.307402
v 0.080347 -0.147314 -0.133882
v 0.004770 -0.142842 -0.268709
v 0.150945 -0.057497 -0.307402
v 0.149183 -0.011288 0.383010
v -0.212736 -0.011288 0.383010
v -0.323649 -0.072423 -0.058567
v -0.031775 -0.076435 -0.413180
v 0.260099 -0.072423 -0.058567
v 0.082358 0.136985 0.461008
v 0.259997 0.190691 0.265749
v 0.042962 0.284826 0.295091
v -0.325997 0.157951 0.269717
v -0.152280 0.170752 0.447674
v -0.231910 0.265651 0.203006
v -0.314269 0.082720 -0.156666
v -0.385560 0.177781 0.058604
v -0.213534 0.207567 -0.046492
v 0.092464 0.030578 -0.278989
v -0.147831 0.050098 -0.253326
v 0.040391 0.160868 -0.107786
v 0.313376 0.145805 0.060787
v 0.251371 0.102510 -0.150094
v 0.201040 0.239618 0.068697
v -0.031775 0.244763 0.095022
vt 0.844000 0.302500
vt 0.844000 0.302500
vt 0.844000 0.302500
vt 0.844000 0.302500
vt 0.844000 0.302500
vt 0.844000 0.302500
vt 0.844000 0.302500
vt 0.844000 0.302500
vt 0.844000 0.302500
vt 0.844000 0.302500
vt 0.844000 0.302500
vt 0.844000 0.302500
vt 0.844000 0.302500
vt 0.844000 0.302500
vt 0.844000 0.302500
vt 0.844000 0.302500
vt 0.844000 0.302500
vt 0.844000 0.302500
vt 0.844000 0.302500
vt 0.844000 0.302500
vt 0.844000 0.302500
vt 0.844000 0.302500
vt 0.844000 0.302500
vt 0.844000 0.302500
vt 0.844000 0.302500
vt 0.844000 0.302500
vt 0.844000 0.302500
vt 0.844000 0.302500
vt 0.844000 0.302500
vt 0.844000 0.302500
vt 0.844000 0.302500
vt 0.844000 0.302500
vt 0.844000 0.302500
vt 0.844000 0.302500
vt 0.844000 0.302500
vt 0.844000 0.302500
vt 0.844000 0.302500
vt 0.844000 0.302500
vt 0.844000 0.302500
vt 0.844000 0.302500
vt 0.844000 0.302500
vt 0.844000 0.302500
vn 0.0090 -0.9852 0.1714
vn 0.0160 -0.9837 0.1790
vn 0.0103 -0.9849 0.1727
vn 0.2761 -0.9587 0.0687
vn -0.2206 -0.9659 0.1358
vn -0.1730 -0.9840 -0.0417
vn 0.0095 -0.9987 -0.0503
vn 0.6405 -0.7678 0.0166
vn 0.0386 -0.9361 0.3496
vn -0.6402 -0.7610 0.1050
vn -0.4797 -0.8545 -0.1992
vn 0.4311 -0.8609 -0.2702
vn 0.7277 -0.5645 0.3897
vn -0.5885 -0.6073 0.5337
vn -0.5978 -0.7801 0.1846
vn -0.3897 -0.7463 -0.5395
vn 0.4605 -0.8508 -0.2530
vn 0.3925 0.7310 0.5582
vn -0.5152 0.7291 0.4505
vn -0.4259 0.7671 -0.4798
vn -0.0000 0.7958 -0.6056
vn 0.0000 0.7957 -0.6057
vn 0.5925 0.7369 -0.3255
vn -0.0237 0.9208 -0.3893
vn 0.1350 0.8533 -0.5037
vn 0.1065 0.8066 -0.5814
vn 0.0856 0.9311 -0.3547
vn 0.0001 0.7957 -0.6057
vn -0.2234 0.7400 -0.6344
vn -0.0215 0.9734 -0.2282
vn -0.3046 0.9225 -0.2372
vn -0.6470 0.7202 0.2502
vn -0.0030 0.9807 -0.1953
vn -0.0017 0.9807 -0.1957
vn -0.0018 0.9807 -0.1957
vn -0.1995 0.8900 0.4101
vn 0.0712 0.7530 0.6541
vn -0.0005 0.9806 -0.1962
vn 0.4075 0.9073 0.1034
vn 0.6409 0.7676 -0.0012
vn 0.9603 -0.0901 -0.2639
vn 0.8992 -0.1668 -0.4045
vn 0.3919 0.5077 -0.7672
vn 0.3920 0.5078 -0.7672
vn 0.3922 0.5079 -0.7670
vn -0.0028 0.7831 -0.6219
vn -0.3591 0.5871 -0.7255
vn -0.3227 0.5770 -0.7503
vn -0.9570 -0.1114 -0.2677
vn -0.9551 -0.2807 0.0947
vn -0.9494 -0.1903 0.2500
vn -0.7152 -0.0108 0.6989
vn -0.6113 -0.0768 0.7876
vn -0.0150 0.2752 0.9613
vn 0.7420 -0.0181 0.6701
vn 0.8707 -0.2233 0.4381
vn 0.9463 -0.1592 0.2813
vn 0.3917 0.5076 -0.7674
vn 0.3523 -0.8133 -0.4630
vn 0.1040 -0.8934 -0.4370
vn -0.8925 -0.2012 -0.4036
vn -0.4222 -0.8748 -0.2377
vn -0.3834 -0.9224 -0.0469
vn -0.8555 -0.2818 0.4344
vn -0.6828 -0.6289 0.3718
vn -0.6335 -0.6556 0.4110
vn 0.6184 -0.1290 0.7752
vn 0.5657 -0.6742 0.4748
vn 0.5532 -0.6676 0.4983
vn 0.9537 -0.2851 0.0956
vn 0.5650 -0.8034 0.1881
vn 0.3928 -0.9193 -0.0233
vn 0.0951 -0.9917 -0.0862
vn 0.0784 -0.9932 -0.0866
vn -0.0143 -0.9937 -0.1109
vn -0.0743 -0.9922 -0.1005
vn -0.0969 -0.9950 -0.0242
vn -0.2576 -0.9662 0.0067
vn -0.2580 -0.9657 0.0299
vn -0.1095 -0.9870 0.1176
vn -0.1113 -0.9822 0.1516
vn 0.2270 -0.9739 0.0083
vn 0.2231 -0.9747 0.0127
vn 0.2279 -0.9737 0.0072
vn 0.2221 -0.9749 0.0138
vn 0.2390 -0.9709 0.0116
vn 0.0029 -0.9812 0.1927
vn 0.0170 -0.9835 0.1803
vn 0.2212 -0.9615 0.1632
usemtl (null).001
s 1
f 1/1/1 2/2/2 3/3/3
f 4/4/4 2/2/4 5/5/4
f 1/1/5 3/3/5 6/6/5
f 1/1/6 6/6/6 7/7/6
f 1/1/7 7/7/7 8/8/7
f 4/4/8 5/5/8 9/9/8
f 10/10/9 11/11/9 12/12/9
f 13/13/10 14/14/10 15/15/10
f 16/16/11 17/17/11 18/18/11
f 19/19/12 20/20/12 21/21/12
f 4/4/13 9/9/13 22/22/13
f 10/10/14 12/12/14 23/23/14
f 13/13/15 15/15/15 24/24/15
f 16/16/16 18/18/16 25/25/16
f 19/19/17 21/21/17 26/26/17
f 27/27/18 28/28/18 29/29/18
f 30/30/19 31/31/19 32/32/19
f 33/33/20 34/34/20 35/35/20
f 36/36/21 37/37/22 38/38/22
f 39/39/23 40/40/23 41/41/23
f 41/41/24 38/38/24 42/42/24
f 41/41/25 40/40/25 38/38/25
f 40/40/26 36/36/26 38/38/26
f 38/38/27 35/35/27 42/42/27
f 38/38/22 37/37/22 35/35/28
f 37/37/29 33/33/29 35/35/29
f 35/35/30 32/32/30 42/42/30
f 35/35/31 34/34/31 32/32/31
f 34/34/32 30/30/32 32/32/32
f 32/32/33 29/29/34 42/42/35
f 32/32/36 31/31/36 29/29/36
f 31/31/37 27/27/37 29/29/37
f 29/29/34 41/41/38 42/42/35
f 29/29/39 28/28/39 41/41/39
f 28/28/40 39/39/40 41/41/40
f 26/26/41 40/40/41 39/39/41
f 26/26/42 21/21/42 40/40/42
f 21/21/43 36/36/44 40/40/45
f 25/25/46 37/37/46 36/36/46
f 25/25/47 18/18/47 37/37/47
f 18/18/48 33/33/48 37/37/48
f 24/24/49 34/34/49 33/33/49
f 24/24/50 15/15/50 34/34/50
f 15/15/51 30/30/51 34/34/51
f 23/23/52 31/31/52 30/30/52
f 23/23/53 12/12/53 31/31/53
f 12/12/54 27/27/54 31/31/54
f 22/22/55 28/28/55 27/27/55
f 22/22/56 9/9/56 28/28/56
f 9/9/57 39/39/57 28/28/57
f 21/21/43 25/25/58 36/36/44
f 21/21/59 20/20/59 25/25/59
f 20/20/60 16/16/60 25/25/60
f 18/18/61 24/24/61 33/33/61
f 18/18/62 17/17/62 24/24/62
f 17/17/63 13/13/63 24/24/63
f 15/15/64 23/23/64 30/30/64
f 15/15/65 14/14/65 23/23/65
f 14/14/66 10/10/66 23/23/66
f 12/12/67 22/22/67 27/27/67
f 12/12/68 11/11/68 22/22/68
f 11/11/69 4/4/69 22/22/69
f 9/9/70 26/26/70 39/39/70
f 9/9/71 5/5/71 26/26/71
f 5/5/72 19/19/72 26/26/72
f 8/8/73 20/20/73 19/19/73
f 8/8/74 7/7/74 20/20/74
f 7/7/75 16/16/75 20/20/75
f 7/7/76 17/17/76 16/16/76
f 7/7/77 6/6/77 17/17/77
f 6/6/78 13/13/78 17/17/78
f 6/6/79 14/14/79 13/13/79
f 6/6/80 3/3/80 14/14/80
f 3/3/81 10/10/81 14/14/81
f 5/5/82 8/8/83 19/19/84
f 5/5/82 2/2/85 8/8/83
f 2/2/86 1/1/86 8/8/86
f 3/3/87 11/11/87 10/10/87
f 3/3/3 2/2/2 11/11/88
f 2/2/89 4/4/89 11/11/89
